<svg width="393" height="503" viewBox="0 0 393 503" fill="none" xmlns="http://www.w3.org/2000/svg">
<g filter="url(#filter0_d_2620_3983)">
<path d="M75.1075 85.4872C155.14 53.1291 154.388 142.359 268.972 152.576C370.311 161.613 337.657 343.659 271.383 396.826C205.11 449.992 99.6305 424.39 35.7887 339.642C-28.0531 254.895 8.83403 138.653 75.1075 85.4872Z" fill="url(#paint0_linear_2620_3983)" shape-rendering="crispEdges"/>
</g>
<g filter="url(#filter1_d_2620_3983)">
<path d="M61.5168 95.8836C143.477 65.0995 142.389 153.826 259.53 165.987C363.13 176.742 329.085 357.22 261.12 408.938C193.156 460.656 85.3808 433.354 20.3973 347.958C-44.5861 262.561 -6.4474 147.602 61.5168 95.8836Z" fill="url(#paint1_linear_2620_3983)" shape-rendering="crispEdges"/>
</g>
<defs>
<filter id="filter0_d_2620_3983" x="-1.3288" y="78.4549" width="338.864" height="354.091" filterUnits="userSpaceOnUse" color-interpolation-filters="sRGB">
<feFlood flood-opacity="0" result="BackgroundImageFix"/>
<feColorMatrix in="SourceAlpha" type="matrix" values="0 0 0 0 0 0 0 0 0 0 0 0 0 0 0 0 0 0 127 0" result="hardAlpha"/>
<feOffset dy="4"/>
<feGaussianBlur stdDeviation="2"/>
<feComposite in2="hardAlpha" operator="out"/>
<feColorMatrix type="matrix" values="0 0 0 0 0 0 0 0 0 0 0 0 0 0 0 0 0 0 0.25 0"/>
<feBlend mode="normal" in2="BackgroundImageFix" result="effect1_dropShadow_2620_3983"/>
<feBlend mode="normal" in="SourceGraphic" in2="effect1_dropShadow_2620_3983" result="shape"/>
</filter>
<filter id="filter1_d_2620_3983" x="-17.1111" y="89.4324" width="346.338" height="353.678" filterUnits="userSpaceOnUse" color-interpolation-filters="sRGB">
<feFlood flood-opacity="0" result="BackgroundImageFix"/>
<feColorMatrix in="SourceAlpha" type="matrix" values="0 0 0 0 0 0 0 0 0 0 0 0 0 0 0 0 0 0 127 0" result="hardAlpha"/>
<feOffset dy="4"/>
<feGaussianBlur stdDeviation="2"/>
<feComposite in2="hardAlpha" operator="out"/>
<feColorMatrix type="matrix" values="0 0 0 0 0 0 0 0 0 0 0 0 0 0 0 0 0 0 0.25 0"/>
<feBlend mode="normal" in2="BackgroundImageFix" result="effect1_dropShadow_2620_3983"/>
<feBlend mode="normal" in="SourceGraphic" in2="effect1_dropShadow_2620_3983" result="shape"/>
</filter>
<linearGradient id="paint0_linear_2620_3983" x1="277.891" y1="181.711" x2="308.304" y2="148.544" gradientUnits="userSpaceOnUse">
<stop stop-color="#BBD2FB" stop-opacity="0.11"/>
<stop offset="1" stop-color="#4873A6" stop-opacity="0.69"/>
</linearGradient>
<linearGradient id="paint1_linear_2620_3983" x1="87.8094" y1="190.972" x2="389.559" y2="277.5" gradientUnits="userSpaceOnUse">
<stop stop-color="#BBD2FB" stop-opacity="0.17"/>
<stop offset="1" stop-color="#CEE7F0" stop-opacity="0.27"/>
</linearGradient>
</defs>
</svg>
