<svg width="32" height="32" viewBox="0 0 32 32" fill="none" xmlns="http://www.w3.org/2000/svg">
<path d="M31.5296 5.54442L26.7312 0.493474C26.432 0.176842 26.0256 0 25.6 0H6.4C5.976 0 5.568 0.176842 5.2688 0.493474L0.4704 5.54442C0.1792 5.84926 0 6.272 0 6.73684V28.6316C0 30.4893 1.4352 32 3.2 32H28.8C30.5648 32 32 30.4893 32 28.6316V6.73684C32 6.27032 31.8208 5.84926 31.5296 5.54442ZM7.0624 3.36842H24.9376L26.5376 5.05263H5.4624L7.0624 3.36842ZM16 26.9474L8 18.5263H12.8V13.4737H19.2V18.5263H24L16 26.9474Z" fill="white"/>
</svg>
