<svg width="24" height="25" viewBox="0 0 24 25" fill="none" xmlns="http://www.w3.org/2000/svg">
<path d="M17.726 13.52L14 16.5H9V15.5H13.065C13.464 15.5 13.703 15.055 13.481 14.723L12.593 13.391C12.223 12.834 11.599 12.5 10.93 12.5H9H3C2.447 12.5 2 12.947 2 13.5V19.5C2 20.604 2.896 21.5 4 21.5H13.639C14.504 21.5 15.327 21.127 15.897 20.476L22 13.5L20.548 13.016C19.583 12.694 18.521 12.884 17.726 13.52ZM15.403 12.5C17.06 12.5 18.403 11.157 18.403 9.5C18.403 6.792 15.403 3.5 15.403 3.5C15.403 3.5 12.403 6.771 12.403 9.5C12.403 11.157 13.747 12.5 15.403 12.5Z" fill="#F461CB"/>
</svg>
