<svg width="24" height="25" viewBox="0 0 24 25" fill="none" xmlns="http://www.w3.org/2000/svg">
<path d="M19.937 9.18C19.926 9.148 19.917 9.117 19.904 9.086C19.855 8.98 19.794 8.879 19.708 8.793L13.708 2.793C13.622 2.707 13.521 2.646 13.415 2.597C13.385 2.583 13.353 2.575 13.321 2.564C13.237 2.536 13.151 2.518 13.062 2.513C13.04 2.511 13.021 2.5 13 2.5H6C4.897 2.5 4 3.397 4 4.5V20.5C4 21.603 4.897 22.5 6 22.5H18C19.103 22.5 20 21.603 20 20.5V9.5C20 9.479 19.989 9.46 19.987 9.438C19.982 9.35 19.965 9.264 19.937 9.18ZM16.586 8.5H14V5.914L16.586 8.5ZM6 20.5V4.5H12V9.5C12 10.053 12.447 10.5 13 10.5H18L18.002 20.5H6Z" fill="#5D87A8"/>
</svg>
