<svg width="20" height="20" viewBox="0 0 20 20" fill="none" xmlns="http://www.w3.org/2000/svg">
<path d="M8.84 19.871L10 20C9.414 15.309 5.687 11.632 0.987 11.109L0 11L0.0209999 11.173C0.596 15.763 4.242 19.36 8.84 19.871ZM19.979 11.173L20 11L19.013 11.109C14.313 11.632 10.586 15.309 10 20L11.16 19.871C15.758 19.36 19.404 15.763 19.979 11.173ZM16.063 3.5C15.373 2.305 13.843 1.895 12.648 2.585C12.586 2.62 12.537 2.666 12.48 2.706C12.485 2.637 12.5 2.57 12.5 2.5C12.5 1.119 11.381 0 10 0C8.619 0 7.5 1.119 7.5 2.5C7.5 2.57 7.515 2.637 7.521 2.706C7.464 2.666 7.414 2.62 7.353 2.585C6.157 1.895 4.628 2.305 3.938 3.5C3.248 4.695 3.658 6.225 4.853 6.915C4.914 6.95 4.979 6.971 5.041 7C4.979 7.029 4.914 7.05 4.853 7.085C3.658 7.775 3.248 9.305 3.938 10.5C4.628 11.695 6.158 12.105 7.353 11.415C7.415 11.38 7.464 11.334 7.521 11.294C7.515 11.363 7.5 11.43 7.5 11.5C7.5 12.881 8.619 14 10 14C11.381 14 12.5 12.881 12.5 11.5C12.5 11.43 12.485 11.363 12.479 11.294C12.536 11.334 12.585 11.38 12.647 11.415C13.842 12.105 15.372 11.695 16.062 10.5C16.752 9.305 16.342 7.775 15.147 7.085C15.086 7.05 15.021 7.029 14.959 7C15.022 6.971 15.086 6.95 15.147 6.915C16.343 6.225 16.753 4.695 16.063 3.5ZM10 10C8.343 10 7 8.657 7 7C7 5.343 8.343 4 10 4C11.657 4 13 5.343 13 7C13 8.657 11.657 10 10 10Z" fill="#8E35FF"/>
</svg>
