<svg width="24" height="25" viewBox="0 0 24 25" fill="none" xmlns="http://www.w3.org/2000/svg">
<path d="M3.00001 13.5H4.00001V15.5V20.5C4.00001 21.603 4.89701 22.5 6.00001 22.5H18C19.103 22.5 20 21.603 20 20.5V15.5V13.5H21C21.404 13.5 21.77 13.256 21.924 12.883C22.079 12.509 21.993 12.079 21.707 11.793L12.707 2.79301C12.316 2.40201 11.684 2.40201 11.293 2.79301L2.29301 11.793C2.00701 12.079 1.92101 12.509 2.07601 12.883C2.23001 13.256 2.59601 13.5 3.00001 13.5ZM12 4.91401L18 10.914V15.5L18.001 20.5H6.00001V15.5V12.5V10.914L12 4.91401Z" fill="url(#paint0_linear_2449_35)"/>
<path d="M12 18.5001C15.703 18.5001 16.901 14.9611 16.95 14.8111L15.05 14.1901C15.042 14.2131 14.269 16.5001 12 16.5001C9.76199 16.5001 8.97999 14.2791 8.94899 14.1841L7.04999 14.8111C7.09899 14.9611 8.29699 18.5001 12 18.5001Z" fill="#4CCC81"/>
<defs>
<linearGradient id="paint0_linear_2449_35" x1="22.0002" y1="2.49975" x2="7.72966" y2="4.87819" gradientUnits="userSpaceOnUse">
<stop stop-color="#67E799"/>
<stop offset="1" stop-color="#4AD07E"/>
</linearGradient>
</defs>
</svg>
